<svg width="18" height="23" viewBox="0 0 18 23" fill="none" xmlns="http://www.w3.org/2000/svg">
<path d="M9 22.2279L2.636 15.8639C1.37734 14.6052 0.520187 13.0016 0.172928 11.2558C-0.17433 9.50995 0.00390685 7.70035 0.685099 6.05582C1.36629 4.41129 2.51984 3.00569 3.99988 2.01677C5.47992 1.02784 7.21998 0.5 9 0.5C10.78 0.5 12.5201 1.02784 14.0001 2.01677C15.4802 3.00569 16.6337 4.41129 17.3149 6.05582C17.9961 7.70035 18.1743 9.50995 17.8271 11.2558C17.4798 13.0016 16.6227 14.6052 15.364 15.8639L9 22.2279ZM13.95 14.4499C14.9289 13.4709 15.5955 12.2236 15.8656 10.8658C16.1356 9.50795 15.9969 8.10052 15.4671 6.82148C14.9373 5.54244 14.04 4.44923 12.8889 3.68009C11.7378 2.91095 10.3844 2.50043 9 2.50043C7.61557 2.50043 6.26222 2.91095 5.11109 3.68009C3.95996 4.44923 3.06275 5.54244 2.53292 6.82148C2.00308 8.10052 1.86442 9.50795 2.13445 10.8658C2.40449 12.2236 3.07111 13.4709 4.05 14.4499L9 19.3999L13.95 14.4499ZM9 11.4999C8.46957 11.4999 7.96086 11.2892 7.58579 10.9141C7.21072 10.5391 7 10.0304 7 9.49992C7 8.96949 7.21072 8.46078 7.58579 8.08571C7.96086 7.71064 8.46957 7.49992 9 7.49992C9.53044 7.49992 10.0391 7.71064 10.4142 8.08571C10.7893 8.46078 11 8.96949 11 9.49992C11 10.0304 10.7893 10.5391 10.4142 10.9141C10.0391 11.2892 9.53044 11.4999 9 11.4999Z" fill="#6B7AA1"/>
</svg>
