<svg width="20" height="21" viewBox="0 0 20 21" fill="none" xmlns="http://www.w3.org/2000/svg">
<path d="M10 20.5C4.477 20.5 0 16.023 0 10.5C0 4.977 4.477 0.5 10 0.5C15.523 0.5 20 4.977 20 10.5C20 16.023 15.523 20.5 10 20.5ZM7.71 18.167C6.72341 16.0743 6.15187 13.8102 6.027 11.5H2.062C2.25659 13.0389 2.89392 14.4882 3.89657 15.6717C4.89922 16.8552 6.22401 17.7221 7.71 18.167ZM8.03 11.5C8.181 13.939 8.878 16.23 10 18.252C11.1523 16.1766 11.8254 13.8695 11.97 11.5H8.03ZM17.938 11.5H13.973C13.8481 13.8102 13.2766 16.0743 12.29 18.167C13.776 17.7221 15.1008 16.8552 16.1034 15.6717C17.1061 14.4882 17.7434 13.0389 17.938 11.5ZM2.062 9.5H6.027C6.15187 7.18979 6.72341 4.92569 7.71 2.833C6.22401 3.27788 4.89922 4.14475 3.89657 5.3283C2.89392 6.51184 2.25659 7.9611 2.062 9.5ZM8.031 9.5H11.969C11.8248 7.1306 11.152 4.82353 10 2.748C8.84768 4.82345 8.17456 7.13052 8.03 9.5H8.031ZM12.29 2.833C13.2766 4.92569 13.8481 7.18979 13.973 9.5H17.938C17.7434 7.9611 17.1061 6.51184 16.1034 5.3283C15.1008 4.14475 13.776 3.27788 12.29 2.833Z" fill="#6B7AA1"/>
</svg>
